<?xml version="1.0" encoding="UTF-8"?>
<!DOCTYPE svg PUBLIC "-//W3C//DTD SVG 1.1//EN" "http://www.w3.org/Graphics/SVG/1.1/DTD/svg11.dtd">
<svg xmlns="http://www.w3.org/2000/svg" version="1.1" width="75px" height="75px" style="shape-rendering:geometricPrecision; text-rendering:geometricPrecision; image-rendering:optimizeQuality; fill-rule:evenodd; clip-rule:evenodd" xmlns:xlink="http://www.w3.org/1999/xlink">
<g><path style="opacity:0.87" fill="#fefffe" d="M 32.5,17.5 C 39.6942,17.1828 45.8609,19.5162 51,24.5C 50.5364,34.3904 47.0364,43.057 40.5,50.5C 41.365,51.5827 42.365,51.7494 43.5,51C 45.3333,49.1667 47.1667,47.3333 49,45.5C 50.738,40.7842 52.5713,36.1175 54.5,31.5C 58.1618,43.343 54.4951,52.1764 43.5,58C 26.747,61.9608 17.0803,55.4608 14.5,38.5C 15.552,27.1234 21.552,20.1234 32.5,17.5 Z M 32.5,31.5 C 39.6545,31.1527 42.8212,34.486 42,41.5C 37.6667,46.8333 33.3333,46.8333 29,41.5C 27.7563,37.191 28.9229,33.8577 32.5,31.5 Z"/></g>
<g><path style="opacity:0.618" fill="#fefffe" d="M 34.5,35.5 C 39.1972,36.8743 39.5305,38.8743 35.5,41.5C 32.025,39.9158 31.6917,37.9158 34.5,35.5 Z"/></g>
</svg>
