<?xml version="1.0" encoding="UTF-8"?>
<!DOCTYPE svg PUBLIC "-//W3C//DTD SVG 1.1//EN" "http://www.w3.org/Graphics/SVG/1.1/DTD/svg11.dtd">
<svg xmlns="http://www.w3.org/2000/svg" version="1.1" width="75px" height="75px" style="shape-rendering:geometricPrecision; text-rendering:geometricPrecision; image-rendering:optimizeQuality; fill-rule:evenodd; clip-rule:evenodd" xmlns:xlink="http://www.w3.org/1999/xlink">
<g><path style="opacity:0.853" fill="#fefffe" d="M 32.5,17.5 C 40.1382,16.7669 46.4715,19.2669 51.5,25C 40.0575,28.4251 29.0575,32.9251 18.5,38.5C 17.4239,27.6482 22.0906,20.6482 32.5,17.5 Z"/></g>
<g><path style="opacity:0.901" fill="#fefffe" d="M 51.5,28.5 C 54.5719,28.1826 57.5719,28.5159 60.5,29.5C 59.5,31.1667 58.1667,32.5 56.5,33.5C 54.6977,50.1618 45.6977,56.9951 29.5,54C 26.0484,52.2091 22.8817,50.0424 20,47.5C 17.9011,48.2865 15.7345,48.6199 13.5,48.5C 13.7993,45.3579 15.4659,43.1912 18.5,42C 29.2494,36.5913 40.2494,32.0913 51.5,28.5 Z"/></g>
</svg>
