<?xml version="1.0" encoding="UTF-8"?>
<!DOCTYPE svg PUBLIC "-//W3C//DTD SVG 1.1//EN" "http://www.w3.org/Graphics/SVG/1.1/DTD/svg11.dtd">
<svg xmlns="http://www.w3.org/2000/svg" version="1.1" width="75px" height="75px" style="shape-rendering:geometricPrecision; text-rendering:geometricPrecision; image-rendering:optimizeQuality; fill-rule:evenodd; clip-rule:evenodd" xmlns:xlink="http://www.w3.org/1999/xlink">
<g><path style="opacity:0.771" fill="#fefffe" d="M 34.5,15.5 C 37.1873,15.3359 39.854,15.5026 42.5,16C 43.9263,18.7733 45.2596,21.6066 46.5,24.5C 39.1893,25.6646 31.856,25.8313 24.5,25C 22.6063,23.9207 22.273,22.5874 23.5,21C 26.8168,20.5017 30.1501,20.335 33.5,20.5C 33.6287,18.7839 33.962,17.1172 34.5,15.5 Z"/></g>
<g><path style="opacity:0.9" fill="#fefffe" d="M 28.5,28.5 C 37.8393,28.3335 47.1726,28.5002 56.5,29C 57.5171,30.0495 57.6838,31.2161 57,32.5C 55.2663,33.2489 53.433,33.7489 51.5,34C 54.8811,39.2599 57.8811,44.7599 60.5,50.5C 46.1667,51.8333 31.8333,51.8333 17.5,50.5C 21.2255,43.1331 24.8921,35.7997 28.5,28.5 Z"/></g>
</svg>
